<svg width="15" height="64" viewBox="0 0 15 64" fill="none" xmlns="http://www.w3.org/2000/svg">
<path d="M7.43443 11.7623C11.2406 11.7623 14.3262 9.23565 14.3262 6.11888C14.3262 3.00211 11.2406 0.475464 7.43443 0.475464C3.62821 0.475464 0.542664 3.00211 0.542664 6.11888C0.542664 9.23565 3.62821 11.7623 7.43443 11.7623Z" fill="#8BC34A"/>
<path d="M7.85211 21.7951C8.65948 21.7951 9.31399 21.14 9.31399 20.332C9.31399 19.5239 8.65948 18.8689 7.85211 18.8689C7.04473 18.8689 6.39022 19.5239 6.39022 20.332C6.39022 21.14 7.04473 21.7951 7.85211 21.7951Z" fill="#8BC34A"/>
<path d="M7.85211 32.2459C8.65948 32.2459 9.31399 31.5909 9.31399 30.7828C9.31399 29.9747 8.65948 29.3197 7.85211 29.3197C7.04473 29.3197 6.39022 29.9747 6.39022 30.7828C6.39022 31.5909 7.04473 32.2459 7.85211 32.2459Z" fill="#8BC34A"/>
<path d="M7.85211 42.6967C8.65948 42.6967 9.31399 42.0417 9.31399 41.2336C9.31399 40.4256 8.65948 39.7705 7.85211 39.7705C7.04473 39.7705 6.39022 40.4256 6.39022 41.2336C6.39022 42.0417 7.04473 42.6967 7.85211 42.6967Z" fill="#8BC34A"/>
<path d="M7.85211 52.7295C8.65948 52.7295 9.31399 52.0744 9.31399 51.2664C9.31399 50.4584 8.65948 49.8033 7.85211 49.8033C7.04473 49.8033 6.39022 50.4584 6.39022 51.2664C6.39022 52.0744 7.04473 52.7295 7.85211 52.7295Z" fill="#8BC34A"/>
<path d="M7.85211 63.5984C8.65948 63.5984 9.31399 62.9433 9.31399 62.1353C9.31399 61.3272 8.65948 60.6721 7.85211 60.6721C7.04473 60.6721 6.39022 61.3272 6.39022 62.1353C6.39022 62.9433 7.04473 63.5984 7.85211 63.5984Z" fill="#8BC34A"/>
</svg>
