<svg width="16" height="19" viewBox="0 0 16 19" fill="none" xmlns="http://www.w3.org/2000/svg">
<path d="M7.5 9C8.7364 9 9.80702 8.55654 10.6818 7.6816C11.5566 6.8068 12 5.73643 12 4.49986C12 3.26371 11.5566 2.1932 10.6816 1.31811C9.80673 0.443457 8.73625 0 7.5 0C6.26346 0 5.19313 0.443457 4.31836 1.31826C3.44359 2.19305 3 3.26357 3 4.49986C3 5.73643 3.44359 6.80695 4.3185 7.68174C5.19341 8.5564 6.26389 9 7.5 9Z" fill="#D9D9D9"/>
<path d="M15.9612 14.5305C15.9353 14.1536 15.8829 13.7425 15.8058 13.3083C15.728 12.8709 15.6278 12.4573 15.5078 12.0794C15.3839 11.6888 15.2153 11.303 15.007 10.9333C14.7907 10.5496 14.5367 10.2155 14.2517 9.94053C13.9537 9.65289 13.5887 9.42164 13.1668 9.25295C12.7463 9.08515 12.2803 9.00015 11.7818 9.00015C11.586 9.00015 11.3967 9.08117 11.031 9.32128C10.806 9.4693 10.5428 9.6405 10.249 9.82984C9.99777 9.99129 9.65744 10.1426 9.23708 10.2795C8.82697 10.4134 8.41056 10.4813 7.99956 10.4813C7.58857 10.4813 7.1723 10.4134 6.76175 10.2795C6.34183 10.1427 6.0015 9.99144 5.75057 9.82999C5.45955 9.64241 5.19619 9.47122 4.96779 9.32113C4.60259 9.08102 4.41312 9 4.21735 9C3.71871 9 3.25285 9.08515 2.83249 9.2531C2.41081 9.42149 2.04576 9.65274 1.74743 9.94067C1.46255 10.2158 1.20841 10.5497 0.992447 10.9333C0.784242 11.303 0.615688 11.6886 0.491614 12.0795C0.371783 12.4575 0.271558 12.8709 0.193719 13.3083C0.116612 13.7419 0.0642318 14.1532 0.0383342 14.531C0.0128756 14.9011 0 15.2853 0 15.6733C0 16.683 0.318233 17.5004 0.945772 18.1033C1.56556 18.6982 2.38565 19 3.38292 19H12.6171C13.6144 19 14.4341 18.6983 15.0541 18.1033C15.6818 17.5009 16 16.6833 16 15.6731C15.9999 15.2834 15.9868 14.8989 15.9612 14.5305Z" fill="#D9D9D9"/>
</svg>
