<svg width="24" height="24" viewBox="0 0 24 24" fill="none" xmlns="http://www.w3.org/2000/svg">
<path d="M3.81125 10.2329L7.81454 9.42159C8.09179 9.3654 8.33226 9.19442 8.47639 8.951L11.1395 4.45325C11.5268 3.79924 12.4732 3.79924 12.8605 4.45325L15.5236 8.951C15.6678 9.19442 15.9082 9.3654 16.1855 9.42159L20.1888 10.2329C20.9675 10.3907 21.26 11.3499 20.7019 11.9154L17.3718 15.2899C17.1392 15.5256 17.0384 15.8611 17.1025 16.186L17.8527 19.987C18.0141 20.8046 17.1631 21.4493 16.4197 21.0726L12.452 19.0623C12.1679 18.9184 11.8322 18.9184 11.548 19.0623L7.58036 21.0726C6.8369 21.4493 5.98594 20.8046 6.14732 19.9869L6.89752 16.186C6.96163 15.8611 6.86079 15.5256 6.62822 15.2899L3.29811 11.9154C2.74002 11.3499 3.03254 10.3907 3.81125 10.2329Z" fill="#FDB92C"/>
</svg>
