<svg width="21" height="21" viewBox="0 0 21 21" fill="none" xmlns="http://www.w3.org/2000/svg">
<path d="M14.5312 12.4614C17.052 8.90177 16.2089 3.97274 12.6493 1.45252C9.08967 -1.06771 4.16063 -0.225224 1.64041 3.335C-0.879808 6.89463 -0.0373253 11.8231 3.5229 14.3433C6.0636 16.1421 9.42269 16.2806 12.1025 14.698L17.9252 20.4858C18.5539 21.1476 19.5999 21.1741 20.2617 20.5454C20.9236 19.9173 20.9501 18.8713 20.322 18.2094C20.3021 18.1884 20.2828 18.1691 20.2617 18.1492L14.5312 12.4614ZM8.08098 13.001C5.26809 13.0016 2.98754 10.7228 2.98574 7.90994C2.98513 5.09705 5.26387 2.81651 8.07737 2.8153C10.8866 2.8141 13.166 5.08922 13.1714 7.8985C13.1762 10.712 10.8987 12.9962 8.08459 13.001C8.08339 13.001 8.08279 13.001 8.08098 13.001Z" fill="#787878"/>
</svg>
