<svg width="23" height="22" viewBox="0 0 23 22" fill="none" xmlns="http://www.w3.org/2000/svg">
<path d="M16.8079 5.05844H6.19248C5.70417 5.05844 5.30786 5.43614 5.30786 5.90152C5.30786 6.3669 5.70417 6.7446 6.19248 6.7446H16.8079C17.2962 6.7446 17.6925 6.3669 17.6925 5.90152C17.6925 5.43614 17.2962 5.05844 16.8079 5.05844Z" fill="#BABABA"/>
<path d="M13.2694 8.43079H6.19248C5.70417 8.43079 5.30786 8.80848 5.30786 9.27386C5.30786 9.73924 5.70417 10.1169 6.19248 10.1169H13.2694C13.7577 10.1169 14.154 9.73924 14.154 9.27386C14.154 8.80848 13.7577 8.43079 13.2694 8.43079Z" fill="#BABABA"/>
<path d="M19.4615 0H3.53846C1.587 0 0 1.51248 0 3.37231V20.2338C0 20.561 0.198154 20.8594 0.509538 20.9977C0.628077 21.0499 0.757231 21.0769 0.884615 21.0769C1.08808 21.0769 1.28977 21.0095 1.45077 20.8813L6.51254 16.8615H19.4615C21.413 16.8615 23 15.3491 23 13.4892V3.37231C23 1.51248 21.413 0 19.4615 0ZM21.2308 13.4892C21.2308 14.4183 20.4382 15.1754 19.4615 15.1754H6.19231C5.98531 15.1754 5.78538 15.2445 5.62615 15.371L1.76923 18.4347V3.37231C1.76923 2.44324 2.56185 1.68615 3.53846 1.68615H19.4615C20.4382 1.68615 21.2308 2.44324 21.2308 3.37231V13.4892Z" fill="#BABABA"/>
</svg>
