<svg width="18" height="17" viewBox="0 0 18 17" fill="none" xmlns="http://www.w3.org/2000/svg">
<path d="M12.1349 10.0878C14.1756 7.20618 13.4931 3.21602 10.6115 1.17585C7.72991 -0.864327 3.73975 -0.182319 1.69958 2.69976C-0.340595 5.58135 0.341412 9.57103 3.22349 11.6112C5.28024 13.0674 7.9995 13.1795 10.1689 11.8983L14.8825 16.5837C15.3914 17.1194 16.2382 17.1409 16.7739 16.6319C17.3097 16.1235 17.3312 15.2767 16.8227 14.7409C16.8066 14.7239 16.791 14.7083 16.7739 14.6922L12.1349 10.0878ZM6.91335 10.5246C4.63626 10.5251 2.79011 8.68037 2.78865 6.40327C2.78816 4.12618 4.63284 2.28003 6.91043 2.27905C9.1846 2.27808 11.0298 4.11984 11.0342 6.39401C11.0381 8.6716 9.19435 10.5207 6.91628 10.5246C6.9153 10.5246 6.91482 10.5246 6.91335 10.5246Z" fill="#668FC6"/>
</svg>
