<?xml version="1.0" standalone="no"?>
<!DOCTYPE svg PUBLIC "-//W3C//DTD SVG 20010904//EN"
 "http://www.w3.org/TR/2001/REC-SVG-20010904/DTD/svg10.dtd">
<svg version="1.0" xmlns="http://www.w3.org/2000/svg"
 width="504.000000pt" height="711.000000pt" viewBox="0 0 504.000000 711.000000"
 preserveAspectRatio="xMidYMid meet">

<g transform="translate(0.000000,711.000000) scale(0.100000,-0.100000)"
fill="#000000" stroke="none">
<path d="M905 6241 c-112 -28 -210 -121 -249 -235 -15 -46 -16 -256 -15 -2610
0 -2367 2 -2565 17 -2608 38 -105 128 -192 232 -222 50 -15 201 -17 1730 -14
l1675 3 56 26 c76 36 129 86 170 161 l34 63 0 2595 0 2595 -28 53 c-39 75 -87
124 -159 163 l-63 34 -1685 2 c-927 0 -1698 -2 -1715 -6z m3386 -204 c18 -12
44 -38 56 -56 l23 -34 0 -2544 c0 -2750 4 -2569 -52 -2620 -12 -12 -36 -27
-51 -32 -41 -16 -3310 -15 -3340 0 -44 23 -78 64 -92 113 -13 43 -15 372 -15
2535 0 1457 4 2502 10 2525 11 48 36 84 80 114 l33 22 1657 0 1657 0 34 -23z"/>
<path d="M1131 5814 l-31 -26 0 -463 0 -464 24 -28 24 -28 1452 0 1452 0 24
28 24 28 0 464 0 463 -31 26 -31 26 -1438 0 -1438 0 -31 -26z m2789 -494 l0
-330 -1320 0 -1320 0 0 330 0 330 1320 0 1320 0 0 -330z"/>
<path d="M1369 4385 c-44 -24 -49 -58 -49 -327 0 -263 5 -294 49 -317 11 -6
130 -11 291 -11 296 -1 309 1 330 56 14 36 13 513 -1 553 -20 58 -39 61 -331
61 -209 -1 -268 -4 -289 -15z m436 -325 l0 -145 -145 0 -145 0 -3 134 c-1 74
0 141 2 148 4 11 37 13 148 11 l143 -3 0 -145z"/>
<path d="M2325 4391 c-11 -5 -29 -19 -40 -31 -19 -21 -20 -38 -23 -284 -2
-159 1 -273 7 -289 21 -54 33 -56 331 -57 255 -1 275 0 299 18 l26 19 3 279
c1 153 0 289 -3 301 -11 48 -44 53 -322 52 -142 0 -267 -4 -278 -8z m423 -328
l-3 -148 -147 -3 -148 -3 0 151 0 150 150 0 151 0 -3 -147z"/>
<path d="M3249 4385 c-47 -25 -50 -50 -47 -338 3 -258 4 -267 25 -288 31 -32
67 -35 349 -29 247 5 254 6 276 28 23 22 23 28 26 280 4 287 -1 323 -48 347
-41 21 -542 21 -581 0z m441 -325 l0 -151 -147 3 -148 3 -3 148 -3 147 151 0
150 0 0 -150z"/>
<path d="M1373 3558 c-11 -5 -29 -24 -38 -42 -14 -27 -16 -64 -13 -298 l3
-266 24 -26 25 -26 290 2 290 3 23 34 c22 33 23 40 23 286 0 159 -4 264 -11
284 -20 58 -39 61 -331 60 -160 0 -271 -4 -285 -11z m437 -323 l0 -145 -150 0
-150 0 0 145 0 145 150 0 150 0 0 -145z"/>
<path d="M2308 3554 c-44 -24 -50 -63 -46 -347 l3 -259 28 -24 28 -24 278 0
c266 0 279 1 305 21 l26 20 0 284 c0 156 -3 291 -6 300 -16 40 -51 45 -326 45
-212 -1 -268 -4 -290 -16z m442 -319 l0 -145 -150 0 -150 0 0 145 0 145 150 0
150 0 0 -145z"/>
<path d="M3231 3534 l-32 -36 3 -273 3 -273 24 -26 24 -26 283 0 283 0 28 24
28 24 3 277 3 276 -35 35 -34 34 -275 0 -275 0 -31 -36z m459 -299 l0 -145
-150 0 -150 0 0 145 0 145 150 0 150 0 0 -145z"/>
<path d="M1369 2725 c-44 -24 -49 -58 -49 -327 0 -264 5 -294 49 -318 12 -6
125 -10 295 -10 l275 0 28 24 28 24 3 259 c4 288 -1 324 -48 348 -42 22 -542
21 -581 0z m439 -322 l-3 -148 -145 0 -145 0 -3 148 -3 147 151 0 151 0 -3
-147z"/>
<path d="M2309 2725 c-44 -24 -49 -59 -49 -322 0 -259 6 -300 48 -322 14 -7
118 -11 295 -11 262 0 275 1 301 21 l26 20 0 284 c0 156 -3 291 -6 300 -16 40
-51 45 -326 45 -209 -1 -268 -4 -289 -15z m439 -322 l-3 -148 -147 -3 -148 -3
0 151 0 150 150 0 151 0 -3 -147z"/>
<path d="M3249 2725 c-47 -25 -50 -50 -47 -339 l3 -268 28 -24 28 -24 279 0
279 0 28 24 28 24 3 266 c3 291 -1 321 -54 345 -39 18 -541 14 -575 -4z m439
-322 l-3 -148 -145 0 -145 0 -3 148 -3 147 151 0 151 0 -3 -147z"/>
<path d="M1369 1895 c-44 -24 -49 -59 -49 -322 0 -259 6 -300 48 -322 27 -15
556 -15 583 -1 44 24 49 54 49 318 0 271 -5 304 -51 327 -41 22 -541 21 -580
0z m439 -322 l-3 -148 -145 0 -145 0 -3 148 -3 147 151 0 151 0 -3 -147z"/>
<path d="M2308 1894 c-44 -24 -50 -63 -46 -347 l3 -259 28 -24 28 -24 745 0
c492 0 752 3 765 10 45 24 49 54 49 325 0 278 -4 300 -55 323 -19 9 -211 12
-758 12 -625 -1 -736 -3 -759 -16z m1382 -324 l0 -150 -620 0 -620 0 0 150 0
150 620 0 620 0 0 -150z"/>
</g>
</svg>
