<?xml version="1.0" standalone="no"?>
<!DOCTYPE svg PUBLIC "-//W3C//DTD SVG 20010904//EN"
 "http://www.w3.org/TR/2001/REC-SVG-20010904/DTD/svg10.dtd">
<svg version="1.0" xmlns="http://www.w3.org/2000/svg"
 width="176.000000pt" height="160.000000pt" viewBox="0 0 176.000000 160.000000"
 preserveAspectRatio="xMidYMid meet">

<g transform="translate(0.000000,160.000000) scale(0.100000,-0.100000)"
fill="#000000" stroke="none">
<path d="M710 1349 c-96 -50 -255 -131 -354 -182 -98 -50 -181 -98 -184 -105
-7 -19 16 -32 61 -32 l37 0 0 -364 0 -365 -47 -3 c-40 -3 -48 -6 -48 -23 0
-20 8 -20 699 -23 719 -2 735 -1 704 35 -6 7 -28 13 -49 13 l-39 0 0 365 0
365 39 0 c40 0 72 23 55 39 -11 11 -686 371 -693 371 -4 0 -85 -41 -181 -91z
m407 -80 c124 -67 254 -136 287 -155 l61 -34 -585 0 -585 1 195 100 c107 56
240 125 295 155 55 29 101 53 102 53 2 1 105 -53 230 -120z m-747 -604 l0
-365 -30 0 -30 0 0 365 0 365 30 0 30 0 0 -365z m970 0 l0 -365 -50 0 -50 0
-2 167 -3 168 -82 3 -83 3 0 163 c0 140 -2 165 -16 170 -20 8 -328 8 -348 0
-14 -5 -16 -30 -16 -170 l0 -164 -80 0 c-68 0 -81 -3 -90 -19 -5 -11 -10 -86
-10 -170 l0 -151 -45 0 -45 0 0 365 0 365 460 0 460 0 0 -365z m100 0 l0 -365
-30 0 -30 0 0 365 0 365 30 0 30 0 0 -365z m-630 215 c0 -56 14 -69 50 -50 16
9 25 9 33 1 6 -6 19 -11 28 -11 15 0 19 10 21 53 l3 52 40 0 40 0 3 -142 3
-143 -151 0 -150 0 0 145 0 145 40 0 40 0 0 -50z m90 32 c0 -11 -7 -18 -20
-18 -13 0 -20 7 -20 18 0 11 7 18 20 18 13 0 20 -7 20 -18z m-260 -372 c0 -56
14 -69 50 -50 16 9 25 9 33 1 16 -16 44 -13 51 5 3 9 6 34 6 55 l0 40 38 -3
37 -3 3 -142 3 -143 -151 0 -150 0 0 145 0 145 40 0 40 0 0 -50z m90 32 c0
-11 -7 -18 -20 -18 -13 0 -20 7 -20 18 0 11 7 18 20 18 13 0 20 -7 20 -18z
m250 -32 c0 -56 14 -69 50 -50 16 9 25 9 33 1 16 -16 44 -13 51 5 3 9 6 33 6
55 0 38 1 39 35 39 l35 0 0 -145 0 -145 -145 0 -145 0 0 145 0 145 40 0 40 0
0 -50z m90 32 c0 -11 -7 -18 -20 -18 -13 0 -20 7 -20 18 0 11 7 18 20 18 13 0
20 -7 20 -18z"/>
</g>
</svg>
