<?xml version="1.0" standalone="no"?>
<!DOCTYPE svg PUBLIC "-//W3C//DTD SVG 20010904//EN"
 "http://www.w3.org/TR/2001/REC-SVG-20010904/DTD/svg10.dtd">
<svg version="1.0" xmlns="http://www.w3.org/2000/svg"
 width="717.000000pt" height="687.000000pt" viewBox="0 0 717.000000 687.000000"
 preserveAspectRatio="xMidYMid meet">

<g transform="translate(0.000000,687.000000) scale(0.100000,-0.100000)"
fill="#000000" stroke="none">
<path d="M2624 6008 c-35 -27 -356 -384 -373 -415 -8 -16 -11 -259 -11 -887
l0 -866 -514 0 -514 0 -138 -152 c-75 -84 -164 -182 -197 -217 -32 -36 -63
-76 -68 -89 -15 -38 -12 -2315 3 -2347 27 -59 -178 -55 2843 -55 3035 0 2818
-4 2844 57 8 21 11 328 9 1189 l-3 1161 -34 39 c-37 43 -127 143 -273 304
l-95 105 -514 5 -514 5 -5 875 -5 876 -184 204 c-102 113 -194 210 -205 217
-16 9 -255 12 -1022 13 l-1000 0 -30 -22z m714 -175 c-1 -5 -25 -50 -53 -100
l-50 -93 -342 0 c-189 0 -343 3 -343 6 0 4 39 49 86 100 l86 94 310 0 c170 0
308 -3 306 -7z m461 -82 c28 -49 51 -94 51 -100 0 -8 -59 -11 -201 -11 l-201
0 25 43 c13 23 39 68 57 100 l32 57 93 0 93 0 51 -89z m875 -6 c47 -52 86 -97
86 -100 0 -3 -154 -5 -343 -5 l-342 0 -50 92 c-28 51 -51 96 -53 100 -2 5 136
8 306 8 l310 0 86 -95z m-1474 -564 c0 -256 1 -269 21 -295 17 -21 29 -26 68
-26 25 0 55 6 66 14 11 7 83 45 161 85 l141 72 109 -57 c60 -31 133 -69 161
-85 71 -39 133 -40 162 -3 20 26 21 39 21 295 l0 269 385 0 385 0 0 -995 0
-995 -1225 0 -1225 0 0 995 0 995 385 0 385 0 0 -269z m730 99 c0 -93 -4 -170
-8 -170 -5 0 -60 27 -123 60 -63 33 -126 60 -142 60 -15 0 -64 -19 -110 -42
-45 -23 -99 -50 -119 -60 l-38 -17 0 169 0 170 270 0 270 0 0 -170z m-1993
-1662 c-13 -24 -41 -73 -61 -110 l-38 -68 -359 0 c-197 0 -359 4 -359 8 0 4
41 54 92 110 l91 102 330 0 329 0 -25 -42z m303 -68 l0 -110 -90 0 c-49 0 -90
3 -90 6 0 3 26 52 58 109 54 99 59 104 90 105 l32 0 0 -110z m2953 5 c31 -57
57 -106 57 -110 0 -3 -39 -4 -87 -3 l-88 3 -3 108 -3 107 33 0 c31 -1 36 -6
91 -105z m904 5 c48 -55 90 -105 91 -110 2 -6 -126 -10 -356 -10 l-360 0 -37
68 c-21 37 -48 86 -62 110 l-25 42 330 0 330 0 89 -100z m-4297 -591 l0 -281
29 -29 c46 -46 72 -40 269 63 l176 92 181 -93 c105 -53 192 -92 208 -91 18 0
40 11 58 29 l29 29 0 281 0 281 405 0 405 0 0 -1040 0 -1040 -1285 0 -1285 0
0 1040 0 1040 405 0 405 0 0 -281z m760 96 l0 -186 -126 67 c-79 41 -138 66
-158 66 -20 0 -79 -25 -159 -67 l-127 -66 0 185 0 186 285 0 285 0 0 -185z
m2000 -96 l0 -281 29 -29 c20 -19 40 -29 60 -29 19 0 98 35 208 92 l177 92
178 -92 c198 -103 223 -109 269 -63 l29 29 0 281 0 281 405 0 405 0 0 -1040 0
-1040 -1285 0 -1285 0 0 1040 0 1040 405 0 405 0 0 -281z m760 95 l0 -186
-127 67 c-80 42 -139 67 -159 67 -21 0 -79 -24 -158 -66 l-126 -66 0 185 0
185 285 0 285 0 0 -186z"/>
</g>
</svg>
