<?xml version="1.0" standalone="no"?>
<!DOCTYPE svg PUBLIC "-//W3C//DTD SVG 20010904//EN"
 "http://www.w3.org/TR/2001/REC-SVG-20010904/DTD/svg10.dtd">
<svg version="1.0" xmlns="http://www.w3.org/2000/svg"
 width="663.000000pt" height="662.000000pt" viewBox="0 0 663.000000 662.000000"
 preserveAspectRatio="xMidYMid meet">

<g transform="translate(0.000000,662.000000) scale(0.100000,-0.100000)"
fill="#000000" stroke="none">
<path d="M1523 5795 c-124 -34 -239 -117 -313 -226 -150 -219 -123 -514 63
-704 l63 -63 -62 -41 c-125 -83 -230 -224 -282 -379 -24 -72 -26 -92 -30 -314
l-4 -238 -246 0 c-178 -1 -251 -4 -263 -13 -36 -28 -39 -51 -39 -321 l0 -265
24 -28 c23 -27 29 -28 125 -31 l101 -4 0 -1174 0 -1174 29 -32 29 -33 2542 0
2542 0 29 33 29 32 0 1174 0 1174 101 4 c96 3 102 4 125 31 l24 28 0 264 c0
276 -4 303 -44 324 -15 8 -225 12 -711 14 l-690 2 -3 108 -3 107 421 0 422 0
29 29 29 29 0 775 0 775 -26 31 -26 31 -1233 0 -1233 0 -26 -31 -26 -31 0
-775 0 -775 29 -29 29 -29 421 0 421 0 0 -110 0 -110 -752 2 -753 3 -6 240
c-6 268 -14 308 -86 441 -47 85 -158 203 -235 251 l-58 36 27 20 c40 28 114
120 142 175 60 117 77 271 45 396 -48 185 -203 343 -393 400 -68 20 -225 20
-298 1z m266 -191 c109 -35 206 -133 238 -243 23 -80 14 -193 -20 -263 -37
-76 -126 -159 -202 -188 -81 -31 -188 -32 -265 -2 -80 31 -162 108 -202 190
-30 60 -33 75 -33 157 0 77 4 98 27 147 83 178 272 261 457 202z m3581 -719
l0 -645 -355 0 -355 0 0 120 c0 134 -12 174 -56 190 -14 6 -160 10 -330 10
-331 0 -348 -3 -372 -55 -7 -15 -12 -74 -12 -145 l0 -120 -355 0 -355 0 0 645
0 645 1095 0 1095 0 0 -645z m-3514 -224 c86 -32 189 -113 240 -188 84 -122
107 -233 102 -488 l-3 -150 -522 -3 -523 -2 0 199 c0 110 5 224 11 253 36 175
180 331 358 389 82 27 253 22 337 -10z m2614 -356 l0 -65 -195 0 -195 0 0 65
0 65 195 0 195 0 0 -65z m-2 -362 l-3 -108 -192 -3 -193 -2 0 110 0 110 195 0
196 0 -3 -107z m1452 -438 l0 -145 -2660 0 -2660 0 0 145 0 145 2660 0 2660 0
0 -145z m-250 -1450 l0 -1115 -2410 0 -2410 0 0 1115 0 1115 2410 0 2410 0 0
-1115z"/>
</g>
</svg>
